<?xml version="1.0" encoding="utf-8" ?>
<svg baseProfile="full" height="211" version="1.1" width="335" xmlns="http://www.w3.org/2000/svg" xmlns:ev="http://www.w3.org/2001/xml-events" xmlns:xlink="http://www.w3.org/1999/xlink"><defs /><polyline fill="none" points="134,134 135,134 136,135 138,135 136,135 135,134" stroke="black" stroke-width="1" /><polyline fill="none" points="96,133 96,134 97,135 99,135 97,135 96,134" stroke="black" stroke-width="1" /><polyline fill="none" points="115,129 115,133 114,134 111,134 108,131 109,132 108,133 106,133 105,134 106,133 107,133 108,134 108,135 110,135 111,134 114,134 115,133 115,132 116,131 118,131 119,130 118,131 116,131 115,130" stroke="black" stroke-width="1" /><polyline fill="none" points="120,128 121,129 121,131 120,132 121,133 121,134 124,134 122,134 120,132 121,131 121,128" stroke="black" stroke-width="1" /><polyline fill="none" points="113,128 113,131 112,132 111,131 111,130 111,131 112,132 113,131" stroke="black" stroke-width="1" /><polyline fill="none" points="115,125 115,127 116,126 118,128 117,129 118,128" stroke="black" stroke-width="1" /><polyline fill="none" points="97,124 96,125 96,130 95,131 96,130 96,125 97,124 100,124 101,125 102,125 103,126 103,127 102,128 103,129 102,130 102,134 101,135 102,134 103,135 102,134 102,131 103,130 103,126 102,125 103,124 104,124 103,124 102,125 101,125 100,124" stroke="black" stroke-width="1" /><polyline fill="none" points="154,123 152,125 152,126 151,127 150,126 150,127 151,127 152,126 152,125 153,124 154,125 154,127 153,128 153,129 150,132 149,131 149,129 149,131 150,132 150,134 152,134 152,133 151,134 150,133 150,132 151,131 152,131 152,130 153,129 153,128 154,127 156,127 157,128 159,128 160,129 159,130 159,131 160,132 159,133 160,134 161,134 162,135 164,135 165,134 166,134 165,134 164,135 162,135 161,134 160,134 159,133 160,132 166,132 164,130 165,129 166,129 164,129 163,128 164,129 164,130 165,131 164,132 160,132 159,131 159,130 160,129 161,130 162,130 161,130 160,129 160,126 161,125 162,126 163,126 162,126 161,125 162,124 164,124 162,124 161,125 160,125 160,127 159,128 157,128 156,127 155,127 154,126 154,125 153,124 154,123 155,123 156,124 156,125 157,125 158,126 156,124 156,123" stroke="black" stroke-width="1" /><polyline fill="none" points="113,123 113,126 113,124 114,123 116,123 118,125 122,125 123,124 124,124 125,125 125,129 124,130 123,129 124,130 123,131 124,130 125,131 125,132 128,132 129,131 130,131 131,132 131,133 129,135 128,134 127,134 126,135 127,134 128,134 129,135 130,134 131,134 131,131 130,130 130,129 129,128 129,127 128,126 129,125 130,125 131,126 131,127 132,128 133,128 135,130 135,132 136,132 137,133 138,133 137,133 135,131 135,130 134,129 136,127 137,128 139,128 140,127 141,128 141,131 140,132 141,133 140,134 141,134 142,135 144,135 144,133 143,132 143,131 144,130 144,129 143,128 143,127 142,126 143,127 143,128 144,129 144,130 143,131 143,132 144,133 144,134 143,135 142,135 141,134 141,128 140,127 140,126 140,127 139,128 137,128 136,127 136,126 135,127 135,128 134,129 133,128 133,127 132,128 131,127 131,125 132,124 133,124 134,125 135,124 139,124 135,124 134,125 133,124 132,124 131,125 129,125 128,124 122,124 121,125 118,125 116,123" stroke="black" stroke-width="1" /><polyline fill="none" points="109,123 109,126 108,127 109,128 109,129 109,128 110,127 111,128 110,127 110,126 109,125" stroke="black" stroke-width="1" /><polyline fill="none" points="240,99 239,100 237,100 233,104 233,106 232,107 232,108 231,109 231,116 232,117 232,119 233,120 233,121 235,123 235,124 236,125 236,127 237,128 237,130 238,131 238,133 239,134 239,135 240,136 240,137 241,137 244,140 246,140 247,141 255,141 256,140 257,140 260,137 261,137 262,136 262,135 263,134 263,132 264,131 264,126 265,125 263,123 263,120 262,119 262,118 261,117 261,114 260,113 260,111 259,110 259,109 258,108 258,106 254,102 254,101 253,101 252,100 251,100 250,99 244,99 243,100 242,100 241,99" stroke="black" stroke-width="1" /><polyline fill="none" points="147,96 146,97 145,97 144,98 144,108 145,109 145,111 146,111 147,112 148,112 149,113 150,113 151,112 152,112 154,110 154,109 156,107 155,106 155,102 156,101 155,100 155,99 154,98 154,97 153,97 152,96" stroke="black" stroke-width="1" /><polyline fill="none" points="241,93 240,94 238,94 237,95 236,95 235,96 236,95 238,95 239,94 240,94 241,93 251,93 252,94 254,94 256,96 257,96 262,101 262,102 264,104 264,106 265,107 265,108 266,109 266,111 267,112 267,114 268,115 268,117 269,118 269,120 270,121 270,125 272,127 272,132 272,127 271,126 272,125 272,121 272,125 271,126 270,125 270,121 269,120 269,118 268,117 268,115 267,114 267,112 266,111 266,109 265,108 265,107 264,106 264,104 263,103 263,102 261,100 261,99 258,96 257,96 256,95 255,95 254,94 252,94 251,93" stroke="black" stroke-width="1" /><polyline fill="none" points="201,89 200,90 199,90 199,94 198,95 198,102 199,103 199,105 198,106 199,107 199,111 198,112 198,113 199,114 199,115 200,116 200,117 202,119 207,119 208,120 208,122 208,121 209,120 210,121 210,123 209,124 205,124 202,127 201,126 201,125 200,125 199,124 194,124 193,125 192,125 192,127 191,128 191,131 190,132 188,132 186,130 186,126 187,125 187,124 185,124 184,125 183,125 182,124 180,124 179,123 179,122 177,122 176,123 175,123 174,124 171,124 170,123 169,124 168,124 168,134 169,135 170,134 171,135 173,135 174,134 174,133 172,133 173,133 174,134 173,135 171,135 170,134 169,135 168,134 168,125 169,124 170,124 171,125 170,126 170,128 171,129 172,129 173,130 172,131 170,131 170,132 171,131 172,131 173,130 174,130 176,132 176,133 177,134 178,134 179,133 180,133 181,132 184,132 183,131 184,130 184,127 183,126 184,125 185,125 186,126 186,130 187,131 187,132 190,132 191,131 191,128 192,127 192,126 194,124 199,124 201,126 198,129 197,129 196,128 196,127 197,126 196,126 196,129 195,130 194,129 193,129 193,131 193,130 194,129 195,130 195,131 196,132 196,133 195,134 194,133 193,133 192,134 183,134 182,135 180,135 182,135 183,134 192,134 193,133 194,134 195,134 198,131 200,133 200,134 202,134 203,135 203,136 205,136 206,135 210,135 212,133 212,131 213,130 213,129 212,128 212,127 211,126 211,125 210,124 210,120 211,119 212,119 212,117 213,116 213,114 212,113 210,113 207,110 207,96 206,95 207,94 207,93 206,92 206,91 205,90 204,90 203,89" stroke="black" stroke-width="1" /><polyline fill="none" points="178,87 177,88 174,88 173,89 172,89 169,92 169,93 168,94 168,95 167,96 167,97 166,98 166,102 166,98 167,97 167,96 168,95 168,94 174,88 177,88 178,87 182,87 183,88 184,88 185,89 187,89 188,90 189,90 191,92 191,93 193,95 193,97 194,98 194,116 193,117 193,118 192,119 188,119 186,117 186,116 185,115 185,114 186,113 186,112 185,111 185,99 184,98 184,97 183,97 182,96 178,96 176,98 176,99 175,100 175,103 176,104 175,105 175,111 174,112 174,113 175,114 175,118 174,119 169,119 167,117 167,111 166,110 166,105 164,103 164,102 164,103 165,104 164,105 165,104 166,105 166,110 167,111 167,117 169,119 174,119 175,118 175,113 174,112 175,111 175,105 176,104 175,103 175,100 176,99 176,98 178,96 182,96 185,99 185,111 186,112 186,113 185,114 185,116 186,117 186,118 187,118 188,119 193,119 193,118 194,117 194,98 193,97 193,95 192,94 192,93 189,90 188,90 187,89 185,89 184,88 183,88 182,87" stroke="black" stroke-width="1" /><polyline fill="none" points="149,87 148,88 145,88 144,89 143,89 142,90 141,90 137,94 136,94 137,94 141,90 142,90 143,89 144,89 145,88 148,88 149,87 152,87 153,88 154,88 155,89 156,89 157,90 158,90 162,94 162,95 163,96 163,97 164,98 164,99 164,98 163,97 163,95 162,94 162,93 160,91 159,91 158,90 157,90 156,89 155,89 154,88 153,88 152,87" stroke="black" stroke-width="1" /><polyline fill="none" points="229,85 228,86 227,86 227,91 226,92 219,92 218,93 218,96 219,97 219,98 220,99 224,99 225,100 224,101 216,101 216,102 215,103 215,107 216,107 217,108 223,108 224,107 225,107 225,106 226,105 227,106 227,107 227,103 229,101 230,101 230,100 233,97 232,98 231,98 231,99 229,101 227,99 228,98 228,97 227,96 228,97 227,98 227,99 226,100 225,100 224,99 221,99 218,96 218,94 220,92 224,92 225,93 226,92 227,93 227,94 228,94 230,96 231,96 232,95 233,95 234,94 234,89 233,88 233,87 231,85" stroke="black" stroke-width="1" /><polyline fill="none" points="52,79 51,80 50,80 49,81 47,81 46,82 45,81 43,81 43,83 44,84 43,85 43,86 42,87 42,88 41,89 41,92 40,93 41,94 41,96 42,97 42,98 44,100 45,100 46,101 48,101 49,102 50,102 51,103 53,103 54,104 56,104 57,105 58,105 59,106 59,107 58,108 57,108 57,110 55,112 54,112 53,113 52,112 49,112 47,110 45,110 43,108 44,107 45,107 46,108 45,107 43,107 43,108 42,109 42,114 43,115 43,117 44,117 46,119 47,119 48,120 54,120 55,121 56,120 59,120 60,119 61,119 62,118 63,118 64,117 65,117 66,116 66,115 67,114 67,113 68,112 69,112 70,113 70,114 71,115 71,116 73,118 74,118 75,119 77,119 78,120 85,120 86,119 90,119 92,117 93,117 93,116 95,114 95,112 96,111 96,107 97,106 98,107 98,109 99,110 98,111 98,112 99,113 99,115 100,116 100,117 101,118 102,118 103,119 104,119 105,120 105,122 106,122 107,123 107,125 106,126 106,127 105,128 105,130 105,128 106,127 106,126 107,125 107,123 105,121 105,120 106,119 108,121 109,120 110,121 111,120 112,120 113,119 115,119 117,117 118,117 120,119 125,119 125,117 126,116 125,115 125,105 126,104 125,103 126,102 126,99 129,96 132,96 133,97 134,97 135,98 135,104 134,105 135,106 135,111 136,112 136,113 137,114 137,115 140,118 141,118 142,119 145,119 147,121 148,120 153,120 154,119 156,119 157,118 158,118 159,117 160,117 160,116 162,114 162,113 163,112 163,111 164,110 164,108 164,110 163,111 163,112 161,114 161,115 159,117 158,117 156,119 154,119 153,120 148,120 147,121 145,119 143,119 142,118 141,118 137,114 137,113 135,111 135,106 134,105 135,104 135,97 133,97 132,96 129,96 128,97 127,97 126,98 126,102 125,103 126,104 125,105 125,115 126,116 125,117 125,118 124,119 121,119 120,118 119,118 118,117 116,117 114,119 113,119 112,120 107,120 106,119 105,120 103,118 102,118 99,115 99,113 98,112 98,111 99,110 98,109 98,106 97,105 98,104 98,103 99,102 99,95 98,94 99,93 99,88 98,87 99,86 99,85 102,82 103,82 104,81 106,83 106,87 107,88 115,88 117,90 116,91 116,92 117,93 115,95 114,95 113,96 107,96 107,99 106,100 106,109 107,110 107,111 108,111 109,112 110,111 111,112 112,111 113,111 114,112 115,111 117,113 116,112 117,111 117,104 118,103 117,102 117,101 118,100 117,99 118,98 118,95 119,94 119,93 123,89 124,89 125,88 131,88 132,89 133,89 135,91 135,92 135,91 133,89 132,89 131,88 125,88 124,89 123,89 122,90 121,90 120,91 120,92 119,93 119,94 118,95 118,98 117,99 118,100 117,101 117,102 118,103 117,104 117,110 116,111 115,111 114,112 113,111 112,111 111,112 110,111 109,112 106,109 106,100 107,99 107,97 108,96 114,96 115,95 116,95 116,94 117,93 116,92 116,91 117,90 116,89 116,88 107,88 106,87 106,83 104,81 103,82 102,82 101,83 100,83 100,84 99,85 99,86 98,87 99,88 99,93 98,94 99,95 99,102 97,104 96,103 96,99 95,98 95,96 94,95 94,94 93,93 93,92 91,90 90,90 89,89 88,89 87,88 84,88 83,87 81,87 80,88 79,88 78,89 76,89 75,90 73,90 72,91 72,93 71,94 71,95 70,96 72,98 73,97 74,97 75,96 77,96 78,95 79,96 80,95 83,95 84,96 85,96 87,98 86,99 84,99 83,100 78,100 77,101 76,101 75,102 74,102 73,103 72,103 71,104 71,105 70,106 70,111 69,112 68,111 68,106 68,112 67,113 67,114 63,118 62,118 61,119 60,119 59,120 56,120 55,121 54,120 48,120 45,117 44,117 43,116 43,115 42,114 42,109 43,108 45,110 44,111 44,112 44,111 45,110 46,110 48,112 52,112 53,113 54,112 55,112 56,111 58,111 60,109 60,108 59,107 59,106 58,105 57,105 56,104 54,104 53,103 51,103 50,102 49,102 48,101 47,101 46,100 44,100 42,98 42,97 41,96 41,94 40,93 41,92 41,89 42,88 42,87 48,81 50,81 52,79 55,79 56,80 57,79 58,79 59,80 62,80 64,82 65,82 67,84 67,88 68,89 68,90 67,91 66,90 65,90 63,88 61,88 60,87 53,87 52,88 51,88 51,90 50,91 50,94 51,95 54,95 55,96 58,96 59,97 60,96 61,97 62,97 68,103 68,104 68,103 67,102 67,101 64,98 63,98 62,97 61,97 60,96 59,97 58,96 55,96 54,95 52,95 50,93 50,92 51,91 51,89 53,87 60,87 61,88 62,88 63,89 64,89 66,91 68,91 68,89 67,88 67,83 66,82 65,82 64,81 63,81 62,80 59,80 58,79 57,79 56,80 55,79" stroke="black" stroke-width="1" /><polyline fill="none" points="201,77 200,78 199,78 198,79 198,80 197,81 197,83 198,84 198,85 199,86 201,86 202,87 204,87 205,86 206,86 207,85 207,84 208,83 208,82 207,81 207,80 206,79 206,78 205,78 204,77 203,77 202,78" stroke="black" stroke-width="1" /><polyline fill="none" points="248,69 248,71 249,72 250,71 251,71 251,70 250,69" stroke="black" stroke-width="1" /><polyline fill="none" points="202,62 201,63 200,63 201,63 202,64 201,65 200,65 201,65 202,64 201,63" stroke="black" stroke-width="1" /><polyline fill="none" points="247,59 247,61 245,63 244,63 241,66 241,71 240,72 241,73 241,74 245,78 252,78 253,77 254,77 256,75 256,68 255,68 256,69 256,75 255,76 254,76 253,77 252,77 251,78 245,78 244,77 244,76 243,76 241,74 241,73 240,72 241,71 241,66 242,65 243,65 247,61" stroke="black" stroke-width="1" /><polyline fill="none" points="259,53 258,54 257,54 257,55 256,56 256,58 257,59 258,59 259,60 265,60 266,61 271,61 274,64 274,66 275,67 274,68 274,69 275,70 274,71 274,73 275,74 274,75 274,79 273,80 273,81 274,82 273,83 273,98 272,99 272,110 273,111 273,112 272,113 272,115 273,116 272,117 272,119 272,117 273,116 272,115 272,113 273,112 273,111 272,110 272,99 273,98 273,83 274,82 273,81 273,80 275,78 274,77 274,75 275,74 274,73 274,71 275,70 274,69 274,68 275,67 274,66 274,63 273,62 272,62 271,61 266,61 265,60 259,60 256,57 256,56 259,53 260,53 261,54 262,54 263,53 264,54 269,54 270,55 271,54 272,55 274,55 275,56 276,56 279,59 279,60 280,61 280,94 279,95 279,100 280,101 279,102 280,103 280,104 279,105 279,111 278,112 279,113 279,115 278,116 278,117 279,118 279,119 278,120 278,138 277,139 277,147 278,148 277,149 277,150 276,151 276,161 275,162 275,163 270,168 269,168 268,169 267,169 266,168 265,169 264,168 261,168 260,169 259,168 247,168 246,167 239,167 238,166 228,166 227,165 226,165 225,164 213,164 212,163 207,163 206,162 198,162 197,161 192,161 191,160 182,160 181,159 178,159 177,158 175,158 174,159 173,158 165,158 164,157 160,157 159,156 158,156 156,154 156,153 155,152 155,151 154,150 154,147 153,146 153,145 154,144 154,141 156,139 158,139 160,141 160,147 161,148 161,149 162,149 163,150 165,150 166,151 172,151 173,152 175,152 176,153 177,152 179,152 180,153 187,153 188,154 189,153 190,154 195,154 196,155 203,155 204,156 211,156 212,157 217,157 218,158 224,158 225,159 226,159 227,158 228,159 235,159 236,160 242,160 243,161 244,160 245,161 251,161 252,162 256,162 257,163 258,162 259,162 260,163 267,163 267,162 270,159 269,158 269,157 270,156 269,155 270,154 270,138 269,137 269,136 270,135 271,136 271,135 269,135 269,136 268,137 268,138 262,144 261,144 260,145 259,145 258,146 257,146 256,147 246,147 245,146 242,146 241,145 240,145 234,139 234,138 233,137 233,136 232,135 232,134 231,133 231,131 230,130 230,128 229,127 229,124 228,123 228,122 227,121 227,118 226,117 226,115 225,114 225,110 226,109 225,109 225,114 226,115 226,117 227,118 227,121 228,122 228,124 229,125 229,127 230,128 230,130 231,131 231,133 232,134 232,135 233,136 233,138 235,140 235,141 238,144 239,144 240,145 241,145 242,146 245,146 246,147 256,147 257,146 259,146 261,144 262,144 263,143 264,143 267,140 267,139 269,137 270,138 270,153 269,154 269,155 270,156 269,157 269,159 268,160 268,161 266,163 260,163 259,162 252,162 251,161 245,161 244,160 243,161 242,160 236,160 235,159 228,159 227,158 226,159 225,158 219,158 218,157 212,157 211,156 204,156 203,155 196,155 195,154 190,154 189,153 188,154 187,153 180,153 179,152 173,152 172,151 166,151 165,150 163,150 160,147 160,140 159,139 156,139 154,141 154,144 153,145 153,146 154,147 154,151 156,153 156,154 158,156 159,156 160,157 164,157 165,158 173,158 174,159 175,158 177,158 178,159 181,159 182,160 191,160 192,161 197,161 198,162 206,162 207,163 212,163 213,164 225,164 226,165 227,165 228,166 238,166 239,167 246,167 247,168 259,168 260,169 261,168 264,168 265,169 266,168 267,169 268,169 269,168 270,168 271,167 272,167 274,165 274,164 275,163 275,162 276,161 276,151 277,150 277,149 278,148 277,147 277,139 278,138 278,120 279,119 279,118 278,117 278,116 279,115 279,113 278,112 279,111 279,105 280,104 280,103 279,102 280,101 279,100 279,95 280,94 280,61 279,60 279,59 278,58 278,57 277,57 276,56 275,56 274,55 272,55 271,54 270,55 269,54 264,54 263,53 262,54 261,54 260,53" stroke="black" stroke-width="1" /><polyline fill="none" points="213,29 212,30 210,30 208,32 208,36 207,37 207,45 206,46 206,48 206,46 207,45 207,37 208,36 208,32 210,30 212,30 213,29 214,30 215,29 216,29 217,30 227,30 228,31 232,31 233,32 242,32 243,33 244,33 245,34 246,34 249,37 249,42 248,43 249,44 249,46 248,47 248,50 246,52 243,52 242,51 237,51 236,50 231,50 229,48 228,48 227,49 220,49 219,48 218,48 217,49 216,49 215,48 208,48 215,48 216,49 217,49 218,48 219,48 220,49 227,49 228,48 229,49 230,49 231,50 236,50 237,51 242,51 243,52 247,52 247,51 248,50 248,47 249,46 249,44 248,43 249,42 249,37 248,36 248,35 247,34 246,34 245,33 243,33 242,32 233,32 232,31 228,31 227,30 217,30 216,29 215,29 214,30" stroke="black" stroke-width="1" /><polyline fill="none" points="210,23 209,24 207,24 206,25 205,25 204,26 203,26 203,27 202,28 202,30 201,31 201,38 200,39 200,45 198,47 196,47 194,45 189,45 188,44 179,44 178,45 176,45 175,46 174,46 172,48 172,49 171,50 171,52 170,53 170,55 169,56 169,62 168,63 168,69 167,70 167,75 166,76 167,77 167,78 171,78 173,76 173,75 174,74 174,69 175,68 175,65 176,64 176,57 179,54 179,53 181,51 186,51 187,52 194,52 195,51 196,51 197,50 198,50 199,51 199,52 198,53 198,55 195,58 194,58 194,59 193,60 193,63 192,64 192,66 193,67 193,71 194,71 195,72 197,72 198,73 201,73 202,72 206,72 206,71 208,69 208,66 209,65 208,64 208,63 205,60 205,54 206,53 209,53 210,54 214,54 215,55 219,55 220,56 226,56 227,57 232,57 233,58 234,58 235,59 238,59 239,58 240,58 241,59 244,59 245,58 244,58 243,59 241,59 240,58 239,58 238,59 235,59 233,57 227,57 226,56 220,56 219,55 217,55 216,54 215,55 214,54 210,54 209,53 206,53 205,54 205,61 209,65 208,66 208,68 207,69 207,70 205,72 202,72 201,73 198,73 197,72 196,72 195,71 194,71 193,70 193,67 192,66 192,64 193,63 193,60 196,57 197,57 197,56 198,55 198,53 199,52 199,50 196,50 194,52 187,52 186,51 180,51 179,52 179,53 177,55 177,56 176,57 176,64 175,65 175,68 174,69 174,74 173,75 173,76 171,78 168,78 166,76 167,75 167,70 168,69 168,63 169,62 169,56 170,55 170,53 171,52 171,50 176,45 178,45 179,44 188,44 189,45 193,45 194,46 195,46 196,47 199,47 199,46 200,45 200,39 201,38 201,31 202,30 202,28 204,26 205,26 207,24 209,24 210,23 219,23 220,24 225,24 226,25 237,25 238,26 244,26 245,27 249,27 250,28 251,28 255,32 255,33 256,34 256,45 255,46 255,51 254,52 254,62 253,63 253,68 253,63 254,62 254,52 255,51 255,46 256,45 256,34 255,33 255,32 254,31 254,30 252,28 250,28 249,27 245,27 244,26 238,26 237,25 226,25 225,24 220,24 219,23" stroke="black" stroke-width="1" /></svg>